<?xml version="1.0" standalone="no"?>
<!DOCTYPE svg PUBLIC "-//W3C//DTD SVG 20010904//EN"
 "http://www.w3.org/TR/2001/REC-SVG-20010904/DTD/svg10.dtd">
<svg version="1.0" xmlns="http://www.w3.org/2000/svg"
 width="32.000000pt" height="32.000000pt" viewBox="0 0 32.000000 32.000000"
 preserveAspectRatio="xMidYMid meet">

<g transform="translate(0.000000,32.000000) scale(0.100000,-0.100000)"
fill="#000000" stroke="none">
<path d="M78 298 c-3 -7 -13 -13 -24 -13 -12 0 -19 -7 -19 -20 0 -11 -8 -21
-18 -23 -18 -4 -24 -32 -6 -32 7 0 9 -10 5 -25 -5 -21 -2 -27 19 -35 15 -6 24
-14 21 -19 -9 -14 20 -21 33 -8 8 8 14 8 22 0 14 -14 39 -6 39 13 0 8 9 14 21
14 18 0 20 4 14 30 -4 19 -3 30 4 30 6 0 11 7 11 15 0 8 -7 15 -16 15 -10 0
-14 7 -12 23 2 17 -2 22 -21 22 -14 0 -26 6 -29 13 -5 16 -39 16 -44 0z m50
-60 c7 -7 12 -22 12 -35 0 -27 -42 -42 -65 -23 -28 23 -11 70 25 70 9 0 21 -5
28 -12z"/>
<path d="M266 262 c-4 -7 -12 -10 -17 -7 -14 9 -35 -17 -35 -45 0 -28 21 -54
35 -46 5 4 12 0 15 -6 5 -10 7 -10 12 0 3 6 12 12 19 12 15 0 25 32 18 60 -3
11 -11 20 -18 20 -7 0 -15 5 -17 12 -3 9 -6 9 -12 0z m22 -49 c5 -17 -26 -29
-40 -15 -6 6 -7 15 -3 22 9 14 37 9 43 -7z"/>
<path d="M200 139 c0 -5 -8 -9 -17 -7 -12 2 -17 -3 -15 -14 2 -10 -2 -18 -8
-18 -5 0 -10 -7 -10 -15 0 -8 5 -15 10 -15 6 0 10 -8 8 -17 -2 -10 3 -18 10
-18 7 0 17 -6 22 -14 7 -12 12 -12 23 -3 7 7 16 9 20 6 3 -3 14 3 24 13 20 20
25 64 9 75 -6 4 -11 13 -11 19 0 6 -15 13 -32 15 -19 2 -33 -1 -33 -7z m48
-55 c4 -26 -20 -37 -43 -21 -10 8 -14 19 -9 30 9 25 48 18 52 -9z"/>
</g>
</svg>
