<?xml version="1.0" standalone="no"?>
<!DOCTYPE svg PUBLIC "-//W3C//DTD SVG 20010904//EN"
 "http://www.w3.org/TR/2001/REC-SVG-20010904/DTD/svg10.dtd">
<svg version="1.0" xmlns="http://www.w3.org/2000/svg"
 width="32.000000pt" height="32.000000pt" viewBox="0 0 32.000000 32.000000"
 preserveAspectRatio="xMidYMid meet">

<g transform="translate(0.000000,32.000000) scale(0.100000,-0.100000)"
fill="#000000" stroke="none">
<path d="M40 315 c0 -3 5 -14 12 -25 16 -25 3 -38 -22 -22 -26 16 -30 15 -30
-6 0 -20 29 -52 47 -52 5 0 20 -11 32 -24 l22 -24 -50 -47 c-55 -51 -62 -72
-33 -98 29 -27 46 -21 97 34 l47 50 24 -22 c13 -12 24 -28 24 -34 0 -17 33
-45 53 -45 20 0 21 4 5 30 -16 25 -3 38 22 22 26 -16 30 -15 30 6 0 20 -29 52
-46 52 -6 0 -25 15 -43 34 l-32 33 63 56 c58 52 61 58 47 73 -13 13 -21 14
-38 5 -11 -7 -21 -17 -21 -24 0 -7 -17 -30 -38 -50 l-38 -37 -32 33 c-18 18
-32 38 -32 43 0 16 -34 44 -53 44 -9 0 -17 -2 -17 -5z m48 -17 c7 -7 12 -19
12 -27 0 -8 14 -29 31 -47 50 -51 16 -76 -39 -29 -17 14 -36 25 -44 25 -18 0
-38 20 -38 39 0 12 3 12 12 3 18 -18 48 -15 48 6 0 10 -5 23 -12 30 -9 9 -9
12 3 12 8 0 20 -5 27 -12z m217 3 c7 -12 -146 -161 -158 -154 -8 4 132 161
145 162 4 1 9 -3 13 -8z m-140 -189 c-7 -7 -55 39 -55 52 0 5 13 -3 30 -19 16
-16 28 -31 25 -33z m60 18 c16 -16 36 -30 45 -30 20 0 40 -19 40 -39 0 -12 -3
-12 -12 -3 -7 7 -20 12 -30 12 -21 0 -24 -30 -5 -49 10 -10 8 -12 -7 -9 -10 1
-22 10 -26 18 -11 24 -24 45 -44 74 -17 24 -16 56 2 56 4 0 21 -13 37 -30z
m-98 -2 c15 -12 13 -50 -3 -44 -16 6 -68 -49 -60 -63 13 -20 0 -11 -30 21 -16
17 -23 28 -16 23 17 -9 73 42 66 59 -6 15 26 17 43 4z m-67 -33 c-13 -14 -26
-23 -28 -20 -7 7 29 45 41 45 6 0 0 -11 -13 -25z m45 -45 c-10 -11 -23 -20
-28 -20 -6 0 0 11 13 25 27 29 42 25 15 -5z m-74 -27 c13 -16 12 -17 -3 -4
-10 7 -18 15 -18 17 0 8 8 3 21 -13z"/>
<path d="M100 126 c0 -2 8 -10 18 -17 15 -13 16 -12 3 4 -13 16 -21 21 -21 13z"/>
<path d="M69 73 l-24 -28 28 24 c25 23 32 31 24 31 -2 0 -14 -12 -28 -27z"/>
</g>
</svg>
