<?xml version="1.0" standalone="no"?>
<!DOCTYPE svg PUBLIC "-//W3C//DTD SVG 20010904//EN"
 "http://www.w3.org/TR/2001/REC-SVG-20010904/DTD/svg10.dtd">
<svg version="1.0" xmlns="http://www.w3.org/2000/svg"
 width="18.000000pt" height="18.000000pt" viewBox="0 0 512.000000 512.000000"
 preserveAspectRatio="xMidYMid meet">

<g transform="translate(0.000000,512.000000) scale(0.100000,-0.100000)"
fill="#ffffff" stroke="none">
<path d="M433 5105 c-200 -43 -376 -221 -418 -422 -22 -102 -22 -4144 0 -4246
43 -203 219 -379 422 -422 102 -22 4144 -22 4246 0 203 43 379 219 422 422 22
102 22 4144 0 4246 -43 203 -219 379 -422 422 -98 21 -4155 21 -4250 0z m457
-765 l0 -560 -332 2 -333 3 0 425 0 425 28 60 c48 102 137 174 241 195 22 4
121 8 219 9 l177 1 0 -560z m890 127 l0 -433 -42 -24 c-69 -38 -154 -97 -239
-166 l-79 -65 -152 3 -153 3 -3 558 -2 557 335 0 335 0 0 -433z m2915 400 c78
-36 137 -95 172 -171 l28 -61 0 -425 0 -425 -600 -2 -600 -3 -65 56 c-194 165
-448 292 -700 350 -278 63 -585 52 -854 -31 -27 -8 -55 -15 -63 -15 -11 0 -13
68 -13 373 0 206 3 377 7 381 4 3 597 5 1317 4 l1311 -3 60 -28z m-1920 -878
c305 -46 582 -186 805 -409 567 -567 567 -1473 0 -2040 -567 -567 -1473 -567
-2040 0 -567 567 -567 1473 0 2040 328 328 777 476 1235 409z m-1555 -432 c0
-2 -25 -41 -56 -88 -187 -283 -289 -651 -270 -979 26 -444 183 -798 491 -1105
327 -328 714 -489 1175 -489 461 0 848 161 1175 489 308 307 465 661 491 1105
19 328 -83 696 -270 979 -31 47 -56 86 -56 88 0 2 225 3 500 3 l500 0 -2
-1537 -3 -1538 -28 -61 c-35 -76 -94 -135 -172 -171 l-60 -28 -2075 0 -2075 0
-61 28 c-76 35 -135 94 -171 172 l-28 60 -3 1538 -2 1537 500 0 c275 0 500 -1
500 -3z"/>
<path d="M2396 3320 c-226 -48 -426 -204 -532 -416 -51 -102 -84 -238 -84
-344 0 -223 107 -446 287 -600 121 -105 328 -180 493 -180 223 0 446 107 600
287 105 121 180 328 180 493 0 288 -174 565 -436 696 -161 80 -331 101 -508
64z m329 -231 c340 -104 494 -507 310 -814 -102 -170 -275 -267 -475 -267
-311 0 -552 241 -552 552 0 192 88 358 246 461 143 94 308 118 471 68z"/>
</g>
</svg>
